<svg xmlns="http://www.w3.org/2000/svg" xmlns:xlink="http://www.w3.org/1999/xlink" width="1080" zoomAndPan="magnify" viewBox="0 0 810 809.999993" height="1080" preserveAspectRatio="xMidYMid meet" version="1.0"><path fill="#b26e3b" d="M 615.050781 274.957031 L 615.050781 141.117188 C 615.050781 121.816406 599.234375 105.996094 579.9375 105.996094 L 479.980469 105.996094 C 488.839844 116.121094 488.207031 131.308594 478.082031 140.484375 C 473.65625 144.597656 467.960938 146.8125 461.949219 146.8125 L 255.078125 146.8125 C 241.792969 146.8125 230.722656 136.054688 230.722656 122.449219 C 230.722656 116.4375 232.9375 110.742188 237.046875 106.3125 L 135.191406 106.3125 C 115.898438 106.3125 100.082031 122.132812 100.082031 141.433594 L 100.082031 767.285156 C 100.082031 786.585938 115.898438 802.40625 135.191406 802.40625 L 579.9375 802.40625 C 599.234375 802.40625 615.050781 786.585938 615.050781 767.285156 L 615.050781 417.972656 L 540.398438 547.066406 C 537.867188 551.496094 532.808594 554.34375 527.429688 553.710938 L 505.601562 591.679688 L 459.738281 627.433594 C 456.890625 629.648438 452.777344 629.015625 450.5625 626.167969 C 449.613281 624.902344 448.980469 623.003906 449.296875 621.421875 L 457.523438 563.835938 L 479.347656 525.867188 C 476.1875 521.753906 475.871094 516.058594 478.398438 511.3125 Z M 615.050781 274.957031 " fill-opacity="1" fill-rule="nonzero"/><path fill="#e9e9ea" d="M 582.785156 330.960938 L 582.785156 141.117188 C 582.785156 139.535156 581.519531 138.585938 579.9375 138.269531 L 479.980469 138.269531 C 479.347656 138.902344 478.714844 139.535156 478.082031 140.167969 C 477.449219 140.800781 476.816406 141.117188 476.183594 141.75 C 475.554688 142.066406 474.921875 142.699219 474.289062 143.015625 L 473.972656 143.332031 C 473.339844 143.648438 472.707031 143.964844 472.074219 144.28125 C 472.074219 144.28125 471.757812 144.28125 471.757812 144.597656 C 471.125 144.914062 470.492188 145.230469 469.859375 145.230469 C 469.542969 145.230469 469.542969 145.230469 469.226562 145.546875 C 468.59375 145.863281 467.960938 145.863281 467.328125 146.179688 C 467.011719 146.179688 467.011719 146.179688 466.695312 146.496094 C 466.0625 146.496094 465.429688 146.8125 464.796875 146.8125 C 464.480469 146.8125 464.480469 146.8125 464.164062 146.8125 C 463.214844 146.8125 462.582031 146.8125 461.632812 146.8125 L 255.078125 146.8125 C 254.128906 146.8125 253.496094 146.8125 252.546875 146.8125 C 252.230469 146.8125 252.230469 146.8125 251.914062 146.8125 C 251.28125 146.8125 250.648438 146.496094 250.015625 146.496094 C 249.699219 146.496094 249.699219 146.496094 249.382812 146.179688 C 248.75 146.179688 248.121094 145.863281 247.488281 145.546875 C 247.171875 145.546875 247.171875 145.546875 246.855469 145.230469 C 246.222656 144.914062 245.589844 144.914062 244.957031 144.597656 C 244.957031 144.597656 244.640625 144.597656 244.640625 144.28125 C 244.007812 143.964844 243.375 143.648438 242.742188 143.332031 L 242.425781 143.015625 C 241.792969 142.699219 241.160156 142.066406 240.527344 141.75 C 239.894531 141.433594 239.261719 140.800781 238.628906 140.167969 C 237.996094 139.535156 237.363281 138.902344 237.046875 138.269531 L 135.191406 138.269531 C 133.613281 138.269531 132.664062 139.535156 132.347656 141.117188 L 132.347656 766.96875 C 132.347656 768.550781 133.613281 769.5 135.191406 769.816406 L 486.941406 769.816406 L 582.785156 673.945312 L 582.785156 474.292969 L 540.714844 547.382812 C 538.183594 551.8125 533.121094 554.660156 527.746094 554.027344 L 505.917969 591.996094 L 460.054688 627.75 C 457.207031 629.964844 453.09375 629.332031 450.878906 626.484375 C 449.929688 625.21875 449.296875 623.320312 449.613281 621.738281 L 457.839844 564.152344 L 479.664062 526.183594 C 476.5 522.070312 476.183594 516.375 478.714844 511.628906 Z M 582.785156 330.960938 " fill-opacity="1" fill-rule="nonzero"/><path fill="#55acd5" d="M 356.617188 331.59375 L 480.296875 331.59375 C 488.523438 331.59375 495.164062 338.238281 495.164062 346.464844 L 495.164062 378.421875 C 495.164062 386.648438 488.523438 393.292969 480.296875 393.292969 L 356.617188 393.292969 C 348.390625 393.292969 341.75 386.648438 341.75 378.421875 L 341.75 346.464844 C 341.75 338.238281 348.390625 331.59375 356.617188 331.59375 Z M 356.617188 331.59375 " fill-opacity="1" fill-rule="nonzero"/><path fill="#55acd5" d="M 479.980469 448.664062 L 356.300781 448.664062 C 348.074219 448.664062 341.433594 455.308594 341.433594 463.535156 L 341.433594 495.492188 C 341.433594 503.71875 348.074219 510.363281 356.300781 510.363281 L 479.03125 510.363281 L 494.53125 483.46875 L 494.53125 463.851562 C 494.847656 455.308594 488.207031 448.664062 479.980469 448.664062 Z M 479.980469 448.664062 " fill-opacity="1" fill-rule="nonzero"/><path fill="#55acd5" d="M 449.296875 621.421875 L 457.207031 565.417969 L 356.617188 565.417969 C 348.390625 565.417969 341.75 572.0625 341.75 580.289062 L 341.75 612.246094 C 341.75 620.472656 348.390625 627.117188 356.617188 627.117188 L 451.195312 627.117188 C 449.929688 625.535156 448.980469 623.320312 449.296875 621.421875 Z M 449.296875 621.421875 " fill-opacity="1" fill-rule="nonzero"/><path fill="#6d6c6b" d="M 478.714844 511.3125 L 682.109375 159.152344 C 685.90625 152.824219 693.8125 150.609375 700.140625 154.40625 L 739.046875 176.871094 C 745.375 180.667969 747.585938 188.578125 743.792969 194.90625 L 540.398438 547.066406 C 536.601562 553.394531 528.695312 555.609375 522.367188 551.8125 L 483.460938 529.347656 C 477.132812 525.867188 474.921875 517.640625 478.714844 511.3125 Z M 478.714844 511.3125 " fill-opacity="1" fill-rule="nonzero"/><path fill="#898989" d="M 740.628906 128.777344 C 727.34375 121.183594 710.261719 125.613281 702.671875 138.902344 L 695.078125 152.191406 C 696.976562 152.507812 698.558594 152.824219 700.140625 153.773438 L 739.046875 176.238281 C 740.628906 177.1875 741.894531 178.453125 743.160156 179.71875 L 750.75 166.429688 C 758.34375 153.457031 753.914062 136.6875 740.628906 128.777344 Z M 740.628906 128.777344 " fill-opacity="1" fill-rule="nonzero"/><path fill="#6d6c6b" d="M 750.117188 184.148438 L 721.015625 234.140625 L 746.007812 248.695312 L 756.445312 230.34375 C 765.617188 215.15625 762.769531 196.171875 750.117188 184.148438 Z M 750.117188 184.148438 " fill-opacity="1" fill-rule="nonzero"/><path fill="#e9e9ea" d="M 457.523438 563.519531 L 449.296875 621.105469 C 448.664062 624.585938 451.195312 628.066406 454.675781 628.382812 C 456.574219 628.699219 458.15625 628.066406 459.421875 627.117188 L 505.285156 591.363281 Z M 457.523438 563.519531 " fill-opacity="1" fill-rule="nonzero"/><path fill="#ffcd29" d="M 522.367188 551.8125 L 483.460938 529.347656 C 481.878906 528.398438 480.613281 527.132812 479.347656 525.867188 L 457.523438 563.835938 L 505.601562 591.679688 L 527.429688 553.710938 C 525.847656 553.394531 523.949219 552.761719 522.367188 551.8125 Z M 522.367188 551.8125 " fill-opacity="1" fill-rule="nonzero"/><path fill="#231f20" d="M 622.007812 278.753906 C 622.640625 277.488281 622.957031 276.222656 622.957031 274.957031 L 622.957031 141.117188 C 622.957031 117.386719 603.664062 98.085938 579.9375 98.085938 L 479.980469 98.085938 C 475.554688 98.085938 472.074219 101.566406 472.074219 105.996094 C 472.074219 107.894531 472.707031 109.792969 473.972656 111.375 C 479.980469 118.019531 479.347656 128.460938 472.707031 134.472656 C 469.542969 137.320312 465.746094 138.585938 461.636719 138.585938 L 255.078125 138.585938 C 245.90625 138.585938 238.628906 131.308594 238.628906 122.132812 C 238.628906 118.019531 240.210938 114.222656 242.742188 111.058594 C 245.589844 107.894531 245.273438 102.832031 242.109375 99.984375 C 240.527344 98.71875 238.628906 98.085938 236.730469 98.085938 L 135.191406 98.085938 C 111.46875 98.085938 92.171875 117.386719 92.171875 141.117188 L 92.171875 766.96875 C 92.171875 790.699219 111.46875 810 135.191406 810 L 579.9375 810 C 603.664062 810 622.957031 790.699219 622.957031 766.96875 L 622.957031 417.972656 C 622.957031 413.542969 619.476562 410.0625 615.050781 410.0625 C 612.203125 410.0625 609.671875 411.644531 608.089844 413.859375 L 533.4375 542.953125 C 532.492188 544.851562 530.277344 545.800781 528.0625 545.484375 C 524.582031 545.167969 521.417969 547.066406 519.835938 550.230469 L 499.277344 585.984375 L 457.523438 618.574219 L 464.796875 566.050781 L 485.359375 530.296875 C 487.257812 527.765625 487.257812 524.285156 485.675781 521.4375 C 485.675781 521.121094 485.359375 521.121094 485.359375 520.804688 C 484.09375 519.222656 484.09375 516.691406 485.042969 514.792969 Z M 471.757812 507.199219 C 468.59375 512.894531 467.960938 519.539062 470.492188 525.550781 L 450.878906 559.722656 C 450.246094 560.671875 449.929688 561.621094 449.929688 562.570312 L 441.707031 620.15625 C 440.757812 628.066406 446.136719 635.34375 454.042969 636.292969 C 457.839844 636.925781 461.949219 635.660156 464.796875 633.445312 L 510.664062 597.691406 C 511.613281 597.058594 512.246094 596.425781 512.5625 595.476562 L 532.175781 561.304688 C 538.5 560.355469 544.195312 556.558594 547.355469 550.863281 L 607.140625 447.082031 L 607.140625 766.652344 C 607.140625 781.839844 594.804688 793.863281 579.9375 793.863281 L 135.191406 793.863281 C 120.011719 793.863281 107.988281 781.523438 107.988281 766.652344 L 107.988281 141.117188 C 107.988281 125.929688 120.324219 113.90625 135.191406 113.90625 L 223.761719 113.90625 C 219.019531 130.992188 229.457031 148.710938 246.539062 153.457031 C 249.382812 154.089844 251.914062 154.40625 254.761719 154.40625 L 461.636719 154.40625 C 479.347656 154.40625 493.898438 139.851562 493.898438 122.132812 C 493.898438 119.285156 493.582031 116.4375 492.949219 113.90625 L 579.9375 113.90625 C 595.121094 113.90625 607.140625 126.246094 607.140625 141.117188 L 607.140625 272.742188 Z M 471.757812 507.199219 " fill-opacity="1" fill-rule="nonzero"/><path fill="#231f20" d="M 589.429688 335.074219 C 590.058594 333.808594 590.375 332.542969 590.375 331.277344 L 590.375 141.117188 C 590.375 135.105469 585.632812 130.359375 579.621094 130.359375 L 479.664062 130.359375 C 477.449219 130.359375 475.238281 131.308594 473.65625 132.890625 C 473.339844 133.207031 473.023438 133.523438 472.390625 134.15625 C 472.074219 134.472656 471.441406 134.789062 471.125 135.105469 C 470.808594 135.421875 470.175781 135.738281 469.542969 136.054688 C 469.226562 136.371094 468.59375 136.371094 468.277344 136.6875 L 467.960938 136.6875 C 467.644531 137.003906 467.011719 137.003906 466.695312 137.003906 L 466.378906 137.003906 C 466.0625 137.003906 465.746094 137.320312 465.113281 137.320312 L 464.796875 137.320312 C 464.480469 137.320312 463.847656 137.320312 463.53125 137.636719 C 463.53125 137.636719 463.214844 137.636719 462.898438 137.636719 C 462.269531 137.636719 461.636719 137.636719 461.003906 137.636719 L 255.078125 137.636719 C 254.445312 137.636719 253.8125 137.636719 253.496094 137.636719 L 252.863281 137.636719 C 252.546875 137.636719 251.914062 137.636719 251.597656 137.320312 L 251.28125 137.320312 C 250.964844 137.320312 250.332031 137.003906 250.015625 137.003906 L 249.699219 137.003906 C 249.382812 137.003906 248.75 136.6875 248.433594 136.6875 L 248.121094 136.371094 C 247.804688 136.054688 247.171875 136.054688 246.855469 135.738281 C 246.539062 135.421875 245.90625 135.105469 245.589844 134.789062 C 245.273438 134.472656 244.640625 134.15625 244.324219 133.839844 C 244.007812 133.523438 243.375 133.207031 243.058594 132.574219 C 241.476562 130.992188 239.261719 130.042969 237.046875 130.042969 L 135.191406 130.042969 C 129.183594 130.042969 124.4375 134.789062 124.4375 140.800781 L 124.4375 766.652344 C 124.4375 772.664062 129.183594 777.410156 135.191406 777.410156 L 486.941406 777.410156 C 489.15625 777.410156 491.050781 776.460938 492.632812 775.195312 L 588.480469 679.324219 C 590.058594 677.742188 590.691406 675.84375 590.691406 673.628906 L 590.691406 473.976562 C 590.691406 469.546875 587.214844 466.066406 582.785156 466.066406 C 579.9375 466.066406 577.40625 467.648438 575.824219 469.863281 L 533.753906 542.953125 C 532.808594 544.851562 530.59375 545.800781 528.378906 545.484375 C 524.898438 545.167969 521.734375 547.066406 520.152344 550.230469 L 499.59375 585.984375 L 457.839844 618.574219 L 465.113281 566.050781 L 485.675781 530.296875 C 487.574219 527.765625 487.574219 524.285156 485.992188 521.4375 C 485.992188 521.121094 485.675781 521.121094 485.675781 520.804688 C 484.410156 519.222656 484.410156 516.691406 485.359375 514.792969 Z M 471.757812 507.199219 C 468.59375 512.894531 467.960938 519.539062 470.492188 525.550781 L 450.878906 559.722656 C 450.246094 560.671875 449.929688 561.621094 449.929688 562.570312 L 441.707031 620.15625 C 440.757812 628.066406 446.136719 635.34375 454.042969 636.292969 C 457.839844 636.925781 461.949219 635.660156 464.796875 633.445312 L 510.664062 597.691406 C 511.613281 597.058594 512.246094 596.425781 512.5625 595.476562 L 532.175781 561.304688 C 538.5 560.355469 544.195312 556.558594 547.355469 550.863281 L 574.878906 503.402344 L 574.878906 670.464844 L 483.777344 761.589844 L 140.570312 761.589844 L 140.570312 146.179688 L 233.886719 146.179688 C 234.515625 146.8125 235.464844 147.445312 236.097656 148.078125 C 236.730469 148.710938 237.679688 149.34375 238.628906 149.660156 L 238.945312 149.976562 C 239.578125 150.292969 240.527344 150.925781 241.476562 151.242188 L 242.109375 151.558594 C 242.742188 151.875 243.691406 152.191406 244.640625 152.507812 L 245.273438 152.824219 C 245.90625 153.140625 246.855469 153.140625 247.804688 153.457031 C 248.121094 153.457031 248.433594 153.457031 248.75 153.773438 C 249.699219 154.089844 250.332031 154.089844 251.28125 154.089844 C 251.597656 154.089844 251.914062 154.089844 252.230469 154.089844 C 253.496094 154.089844 254.445312 154.40625 255.710938 154.40625 L 462.582031 154.40625 C 463.847656 154.40625 464.796875 154.40625 466.0625 154.089844 C 466.378906 154.089844 466.695312 154.089844 467.011719 154.089844 C 467.960938 154.089844 468.59375 153.773438 469.542969 153.773438 C 469.859375 153.773438 470.175781 153.773438 470.492188 153.457031 C 471.441406 153.140625 472.074219 153.140625 472.707031 152.824219 C 473.023438 152.824219 473.023438 152.824219 473.339844 152.507812 C 474.289062 152.191406 474.921875 151.875 475.554688 151.558594 L 476.183594 151.242188 C 477.132812 150.925781 477.765625 150.292969 478.714844 149.976562 L 479.03125 149.660156 C 479.980469 149.027344 480.613281 148.710938 481.5625 147.761719 C 482.195312 147.128906 483.144531 146.496094 483.777344 145.863281 L 575.511719 145.863281 L 575.511719 329.0625 Z M 471.757812 507.199219 " fill-opacity="1" fill-rule="nonzero"/><path fill="#ffcd29" d="M 489.472656 673.945312 C 487.890625 673.945312 486.941406 675.210938 486.625 676.792969 L 486.625 769.816406 L 582.785156 673.945312 Z M 489.472656 673.945312 " fill-opacity="1" fill-rule="nonzero"/><path fill="#e9e9ea" d="M 358.515625 24.996094 C 326.25 24.996094 300.3125 51.257812 300.3125 83.214844 L 300.3125 97.769531 L 332.894531 97.769531 L 332.894531 83.214844 C 332.894531 68.976562 344.597656 57.269531 358.832031 57.269531 C 373.066406 57.269531 384.769531 68.976562 384.769531 83.214844 L 384.769531 97.769531 L 417.351562 97.769531 L 417.351562 83.214844 C 416.71875 50.941406 390.464844 24.996094 358.515625 24.996094 Z M 358.515625 24.996094 " fill-opacity="1" fill-rule="nonzero"/><path fill="#898989" d="M 461.949219 97.769531 L 255.078125 97.769531 C 241.792969 97.769531 230.722656 108.527344 230.722656 122.132812 C 230.722656 135.738281 241.476562 146.496094 255.078125 146.496094 L 461.949219 146.496094 C 475.238281 146.496094 486.308594 135.738281 486.308594 122.132812 C 486.308594 108.527344 475.238281 97.769531 461.949219 97.769531 Z M 461.949219 97.769531 " fill-opacity="1" fill-rule="nonzero"/><path fill="#55acd5" d="M 677.679688 511.945312 C 673.253906 511.945312 669.773438 515.425781 669.773438 519.855469 C 669.773438 524.285156 673.253906 527.765625 677.679688 527.765625 C 682.109375 527.765625 685.589844 524.285156 685.589844 519.855469 C 685.589844 515.742188 682.109375 511.945312 677.679688 511.945312 Z M 677.679688 511.945312 " fill-opacity="1" fill-rule="nonzero"/><path fill="#ea4647" d="M 542.613281 49.992188 C 538.183594 49.992188 534.703125 53.472656 534.703125 57.902344 C 534.703125 62.332031 538.183594 65.8125 542.613281 65.8125 C 547.042969 65.8125 550.519531 62.332031 550.519531 57.902344 C 550.519531 53.472656 547.042969 49.992188 542.613281 49.992188 Z M 542.613281 49.992188 " fill-opacity="1" fill-rule="nonzero"/><path fill="#6dcc6d" d="M 751.699219 448.03125 C 739.679688 445.816406 730.191406 436.324219 727.976562 424.300781 C 727.976562 423.984375 727.660156 423.667969 727.34375 423.984375 C 727.027344 423.984375 727.027344 424.300781 727.027344 424.300781 C 724.8125 436.324219 715.324219 445.816406 703.304688 448.03125 C 702.988281 448.03125 702.671875 448.347656 702.988281 448.664062 C 702.988281 448.980469 703.304688 448.980469 703.304688 448.980469 C 715.324219 451.195312 724.8125 460.6875 727.027344 472.710938 C 727.027344 473.027344 727.34375 473.34375 727.660156 473.027344 C 727.976562 473.027344 727.976562 472.710938 727.976562 472.710938 C 730.191406 460.6875 739.679688 451.195312 751.699219 448.980469 C 752.015625 448.980469 752.332031 448.664062 752.015625 448.347656 C 752.015625 448.347656 752.015625 448.03125 751.699219 448.03125 Z M 751.699219 448.03125 " fill-opacity="1" fill-rule="nonzero"/><path fill="#ffcd29" d="M 491.050781 13.605469 L 485.359375 13.605469 L 485.359375 7.910156 C 485.359375 3.480469 481.878906 0 477.449219 0 C 473.023438 0 469.542969 3.480469 469.542969 7.910156 L 469.542969 13.605469 L 463.847656 13.605469 C 459.421875 13.605469 455.941406 17.085938 455.941406 21.515625 C 455.941406 25.945312 459.421875 29.425781 463.847656 29.425781 L 469.542969 29.425781 L 469.542969 35.121094 C 469.542969 39.550781 473.023438 43.03125 477.449219 43.03125 C 481.878906 43.03125 485.359375 39.550781 485.359375 35.121094 L 485.359375 29.425781 L 491.050781 29.425781 C 495.480469 29.425781 498.960938 25.945312 498.960938 21.515625 C 498.960938 17.085938 495.480469 13.605469 491.050781 13.605469 Z M 491.050781 13.605469 " fill-opacity="1" fill-rule="nonzero"/><path fill="#231f20" d="M 590.058594 670.78125 C 588.796875 667.933594 585.949219 666.035156 582.785156 666.035156 L 489.789062 666.035156 C 483.777344 666.035156 479.03125 670.78125 479.03125 676.792969 L 479.03125 769.816406 C 479.03125 774.246094 482.511719 777.726562 486.941406 777.726562 C 489.15625 777.726562 491.050781 776.777344 492.632812 775.511719 L 588.480469 679.640625 C 590.375 677.109375 591.324219 673.628906 590.058594 670.78125 Z M 494.847656 750.515625 L 494.847656 681.855469 L 563.488281 681.855469 Z M 494.847656 750.515625 " fill-opacity="1" fill-rule="nonzero"/><path fill="#231f20" d="M 461.949219 89.859375 L 255.078125 89.859375 C 237.363281 89.859375 222.8125 104.414062 222.8125 122.132812 C 222.8125 139.851562 237.363281 154.40625 255.078125 154.40625 L 461.949219 154.40625 C 479.664062 154.40625 494.214844 139.851562 494.214844 122.132812 C 494.214844 104.414062 479.664062 89.859375 461.949219 89.859375 Z M 461.949219 138.585938 L 255.078125 138.585938 C 245.90625 138.585938 238.628906 131.308594 238.628906 122.132812 C 238.628906 112.957031 245.90625 105.679688 255.078125 105.679688 L 461.949219 105.679688 C 471.125 105.679688 478.398438 112.957031 478.398438 122.132812 C 478.398438 131.308594 470.808594 138.585938 461.949219 138.585938 Z M 461.949219 138.585938 " fill-opacity="1" fill-rule="nonzero"/><path fill="#231f20" d="M 358.515625 17.085938 C 321.820312 17.085938 292.402344 46.828125 292.402344 83.214844 L 292.402344 97.769531 C 292.402344 102.199219 295.882812 105.679688 300.3125 105.679688 L 332.894531 105.679688 C 337.320312 105.679688 340.800781 102.199219 340.800781 97.769531 L 340.800781 83.214844 C 340.800781 73.40625 348.707031 65.179688 358.832031 65.179688 C 368.953125 65.179688 376.859375 73.089844 376.859375 83.214844 L 376.859375 97.769531 C 376.859375 102.199219 380.339844 105.679688 384.769531 105.679688 L 417.351562 105.679688 C 421.777344 105.679688 425.257812 102.199219 425.257812 97.769531 L 425.257812 83.214844 C 424.625 46.511719 394.890625 17.085938 358.515625 17.085938 Z M 408.808594 89.859375 L 392.042969 89.859375 L 392.042969 83.214844 C 392.042969 64.546875 376.859375 49.359375 358.199219 49.359375 C 339.535156 49.359375 324.351562 64.546875 324.351562 83.214844 L 324.351562 89.859375 L 307.585938 89.859375 L 307.585938 83.214844 C 307.585938 55.371094 330.046875 32.90625 357.882812 32.90625 C 385.71875 32.90625 408.808594 55.371094 408.808594 83.214844 Z M 408.808594 89.859375 " fill-opacity="1" fill-rule="nonzero"/><path fill="#231f20" d="M 450.878906 138.585938 C 446.453125 138.585938 442.972656 142.066406 442.972656 146.496094 L 442.972656 168.328125 C 442.972656 174.972656 437.59375 180.351562 430.953125 180.351562 L 285.761719 180.351562 C 279.117188 180.351562 273.742188 174.972656 273.742188 168.328125 L 273.742188 146.496094 C 273.742188 142.066406 270.261719 138.585938 265.832031 138.585938 C 261.40625 138.585938 257.925781 142.066406 257.925781 146.496094 L 257.925781 168.328125 C 257.925781 183.515625 270.261719 196.171875 285.761719 196.171875 L 430.953125 196.171875 C 446.136719 196.171875 458.789062 183.832031 458.789062 168.328125 L 458.789062 146.496094 C 458.789062 142.066406 455.308594 138.585938 450.878906 138.585938 Z M 450.878906 138.585938 " fill-opacity="1" fill-rule="nonzero"/><path fill="#231f20" d="M 407.226562 230.34375 L 308.851562 230.34375 C 304.425781 230.34375 300.945312 233.824219 300.945312 238.253906 C 300.945312 242.683594 304.425781 246.164062 308.851562 246.164062 L 407.226562 246.164062 C 411.65625 246.164062 415.136719 242.683594 415.136719 238.253906 C 415.136719 233.824219 411.65625 230.34375 407.226562 230.34375 Z M 407.226562 230.34375 " fill-opacity="1" fill-rule="nonzero"/><path fill="#231f20" d="M 475.871094 272.425781 L 240.84375 272.425781 C 236.414062 272.425781 232.9375 275.90625 232.9375 280.335938 C 232.9375 284.765625 236.414062 288.246094 240.84375 288.246094 L 475.871094 288.246094 C 480.296875 288.246094 483.777344 284.765625 483.777344 280.335938 C 483.777344 275.90625 480.296875 272.425781 475.871094 272.425781 Z M 475.871094 272.425781 " fill-opacity="1" fill-rule="nonzero"/><path fill="#231f20" d="M 299.996094 333.492188 L 229.773438 333.492188 C 225.34375 333.492188 221.863281 336.972656 221.863281 341.402344 C 221.863281 345.832031 225.34375 349.3125 229.773438 349.3125 L 299.679688 349.3125 C 304.109375 349.3125 307.585938 345.832031 307.585938 341.402344 C 307.585938 336.972656 304.109375 333.492188 299.996094 333.492188 Z M 299.996094 333.492188 " fill-opacity="1" fill-rule="nonzero"/><path fill="#231f20" d="M 299.996094 375.257812 L 229.773438 375.257812 C 225.34375 375.257812 221.863281 378.738281 221.863281 383.167969 C 221.863281 387.597656 225.34375 391.078125 229.773438 391.078125 L 299.679688 391.078125 C 304.109375 391.078125 307.585938 387.597656 307.585938 383.167969 C 307.585938 378.738281 304.109375 375.257812 299.996094 375.257812 Z M 299.996094 375.257812 " fill-opacity="1" fill-rule="nonzero"/><path fill="#231f20" d="M 299.996094 450.5625 L 229.773438 450.5625 C 225.34375 450.5625 221.863281 454.042969 221.863281 458.472656 C 221.863281 462.902344 225.34375 466.382812 229.773438 466.382812 L 299.679688 466.382812 C 304.109375 466.382812 307.585938 462.902344 307.585938 458.472656 C 307.585938 454.042969 304.109375 450.5625 299.996094 450.5625 Z M 299.996094 450.5625 " fill-opacity="1" fill-rule="nonzero"/><path fill="#231f20" d="M 299.996094 492.328125 L 229.773438 492.328125 C 225.34375 492.328125 221.863281 495.808594 221.863281 500.238281 C 221.863281 504.667969 225.34375 508.148438 229.773438 508.148438 L 299.679688 508.148438 C 304.109375 508.148438 307.585938 504.667969 307.585938 500.238281 C 307.585938 495.808594 304.109375 492.328125 299.996094 492.328125 Z M 299.996094 492.328125 " fill-opacity="1" fill-rule="nonzero"/><path fill="#231f20" d="M 299.996094 567.316406 L 229.773438 567.316406 C 225.34375 567.316406 221.863281 570.796875 221.863281 575.226562 C 221.863281 579.65625 225.34375 583.136719 229.773438 583.136719 L 299.679688 583.136719 C 304.109375 583.136719 307.585938 579.65625 307.585938 575.226562 C 307.585938 570.796875 304.109375 567.316406 299.996094 567.316406 Z M 299.996094 567.316406 " fill-opacity="1" fill-rule="nonzero"/><path fill="#231f20" d="M 299.996094 609.082031 L 229.773438 609.082031 C 225.34375 609.082031 221.863281 612.5625 221.863281 616.992188 C 221.863281 621.421875 225.34375 624.902344 229.773438 624.902344 L 299.679688 624.902344 C 304.109375 624.902344 307.585938 621.421875 307.585938 616.992188 C 307.585938 612.5625 304.109375 609.082031 299.996094 609.082031 Z M 299.996094 609.082031 " fill-opacity="1" fill-rule="nonzero"/><path fill="#231f20" d="M 479.980469 323.683594 L 356.300781 323.683594 C 343.648438 323.683594 333.527344 333.808594 333.527344 346.464844 L 333.527344 378.421875 C 333.527344 391.078125 343.648438 401.203125 356.300781 401.203125 L 479.980469 401.203125 C 492.632812 401.203125 502.757812 391.078125 502.757812 378.421875 L 502.757812 346.464844 C 502.757812 333.808594 492.632812 323.683594 479.980469 323.683594 Z M 486.941406 378.105469 C 486.941406 381.902344 483.777344 385.066406 479.980469 385.066406 L 356.300781 385.066406 C 352.503906 385.066406 349.339844 381.902344 349.339844 378.105469 L 349.339844 346.148438 C 349.339844 342.351562 352.503906 339.1875 356.300781 339.1875 L 479.980469 339.1875 C 483.777344 339.1875 486.941406 342.351562 486.941406 346.148438 Z M 486.941406 378.105469 " fill-opacity="1" fill-rule="nonzero"/><path fill="#231f20" d="M 509.714844 584.71875 L 461.636719 556.875 C 457.839844 554.660156 453.09375 555.925781 450.878906 559.722656 C 450.246094 560.671875 449.929688 561.621094 449.929688 562.570312 L 441.707031 620.15625 C 440.441406 628.066406 446.136719 635.34375 454.042969 636.292969 C 457.839844 636.925781 461.949219 635.660156 464.796875 633.445312 L 510.664062 597.691406 C 514.144531 594.84375 514.777344 590.097656 511.929688 586.617188 C 511.296875 585.667969 510.664062 585.035156 509.714844 584.71875 Z M 457.839844 618.890625 L 463.847656 576.492188 L 491.683594 592.628906 Z M 457.839844 618.890625 " fill-opacity="1" fill-rule="nonzero"/><path fill="#231f20" d="M 752.964844 182.566406 C 751.382812 177.1875 747.902344 172.441406 743.160156 169.59375 L 704.25 147.128906 C 694.128906 141.433594 681.160156 144.914062 675.464844 155.039062 L 472.074219 507.199219 C 466.378906 517.324219 469.859375 530.296875 479.664062 535.992188 L 518.574219 558.457031 C 528.695312 564.152344 541.664062 560.671875 547.355469 550.863281 L 750.75 198.703125 C 753.597656 193.957031 754.230469 187.945312 752.964844 182.566406 Z M 737.148438 190.792969 L 533.753906 542.953125 C 532.175781 545.484375 529.011719 546.433594 526.480469 544.851562 L 487.574219 522.386719 C 485.042969 520.804688 484.09375 517.640625 485.675781 515.109375 L 689.070312 162.949219 C 690.648438 160.417969 693.8125 159.46875 696.34375 161.050781 L 735.25 183.515625 C 737.464844 185.097656 738.414062 188.261719 737.148438 190.792969 Z M 737.148438 190.792969 " fill-opacity="1" fill-rule="nonzero"/><path fill="#231f20" d="M 744.425781 122.132812 C 727.34375 112.324219 705.515625 118.019531 695.710938 135.105469 L 688.121094 148.394531 C 685.90625 152.191406 687.171875 156.9375 690.964844 159.152344 C 691.914062 159.785156 692.863281 160.101562 694.128906 160.101562 C 694.761719 160.101562 695.710938 160.417969 696.34375 160.734375 L 735.25 183.199219 C 735.882812 183.515625 736.515625 184.148438 736.832031 184.78125 C 738.414062 186.679688 740.628906 187.945312 743.160156 187.945312 C 743.160156 187.945312 743.476562 187.945312 743.476562 187.945312 C 746.007812 187.945312 748.535156 186.363281 749.800781 184.148438 L 757.394531 170.859375 C 767.515625 153.773438 761.503906 131.941406 744.425781 122.132812 Z M 743.792969 162.949219 L 740.628906 168.644531 L 706.148438 148.710938 L 709.3125 143.015625 C 714.691406 133.523438 727.027344 130.359375 736.515625 135.738281 C 746.324219 141.117188 749.484375 153.457031 743.792969 162.949219 Z M 743.792969 162.949219 " fill-opacity="1" fill-rule="nonzero"/><path fill="#231f20" d="M 768.148438 199.652344 C 764.984375 187.945312 757.394531 178.136719 746.953125 171.808594 L 699.507812 144.28125 C 695.710938 142.066406 690.964844 143.332031 688.753906 147.128906 C 686.539062 150.925781 687.804688 155.671875 691.597656 157.886719 L 739.046875 185.414062 C 753.28125 193.640625 758.027344 211.992188 749.800781 226.230469 L 681.160156 345.199219 C 677.363281 343.300781 672.621094 344.882812 670.722656 348.996094 C 668.824219 352.792969 670.40625 357.222656 673.886719 359.121094 L 680.210938 362.917969 C 684.007812 365.132812 688.753906 363.867188 690.964844 360.070312 L 763.71875 234.140625 C 769.730469 224.015625 771.3125 211.359375 768.148438 199.652344 Z M 768.148438 199.652344 " fill-opacity="1" fill-rule="nonzero"/><path fill="#231f20" d="M 755.496094 178.453125 C 752.332031 175.605469 747.269531 175.605469 744.425781 178.769531 C 744.109375 179.085938 743.792969 179.71875 743.476562 180.351562 L 714.691406 230.34375 C 712.476562 234.140625 713.742188 238.886719 717.539062 241.101562 L 742.527344 255.65625 C 746.324219 257.871094 751.066406 256.605469 753.28125 252.808594 L 763.71875 234.457031 C 774.160156 216.105469 770.996094 192.691406 755.496094 178.453125 Z M 749.800781 226.546875 L 743.160156 237.9375 L 731.773438 231.292969 L 750.75 198.386719 C 755.179688 207.246094 754.863281 218.003906 749.800781 226.546875 Z M 749.800781 226.546875 " fill-opacity="1" fill-rule="nonzero"/><path fill="#231f20" d="M 534.703125 549.914062 C 533.4375 547.382812 531.226562 545.800781 528.378906 545.484375 C 527.746094 545.484375 526.796875 545.167969 526.164062 544.851562 L 487.257812 522.386719 C 486.625 522.070312 485.992188 521.4375 485.675781 520.804688 C 483.144531 517.324219 478.082031 516.691406 474.605469 519.222656 C 473.65625 519.855469 473.023438 520.804688 472.390625 521.753906 L 450.5625 559.722656 C 448.347656 563.519531 449.613281 568.265625 453.410156 570.480469 L 501.492188 598.324219 C 505.285156 600.539062 510.03125 599.273438 512.246094 595.476562 L 534.070312 557.507812 C 535.652344 555.292969 535.96875 552.445312 534.703125 549.914062 Z M 502.757812 580.605469 L 468.277344 560.671875 L 481.5625 537.574219 L 516.042969 557.507812 Z M 502.757812 580.605469 " fill-opacity="1" fill-rule="nonzero"/><path fill="#231f20" d="M 479.980469 440.753906 L 356.300781 440.753906 C 343.648438 440.753906 333.527344 450.878906 333.527344 463.535156 L 333.527344 495.492188 C 333.527344 508.148438 343.648438 518.273438 356.300781 518.273438 L 479.03125 518.273438 C 481.878906 518.273438 484.410156 516.691406 485.992188 514.476562 L 501.492188 487.582031 C 502.125 486.316406 502.441406 485.050781 502.441406 483.785156 L 502.441406 464.167969 C 502.757812 450.878906 492.632812 440.753906 479.980469 440.753906 Z M 486.941406 480.9375 L 474.605469 502.136719 L 356.300781 502.136719 C 352.503906 502.136719 349.339844 498.972656 349.339844 495.175781 L 349.339844 463.21875 C 349.339844 459.421875 352.503906 456.257812 356.300781 456.257812 L 479.980469 456.257812 C 483.777344 456.257812 486.941406 459.421875 486.941406 463.21875 Z M 486.941406 480.9375 " fill-opacity="1" fill-rule="nonzero"/><path fill="#231f20" d="M 463.214844 560.355469 C 461.636719 558.773438 459.421875 557.507812 457.207031 557.507812 L 356.617188 557.507812 C 343.964844 557.507812 333.839844 567.632812 333.839844 580.289062 L 333.839844 612.246094 C 333.839844 624.902344 343.964844 635.027344 356.617188 635.027344 L 451.195312 635.027344 C 455.625 635.027344 459.105469 631.546875 459.105469 627.117188 C 459.105469 625.21875 458.472656 623.320312 457.207031 622.054688 L 465.113281 567 C 465.429688 564.152344 464.796875 561.9375 463.214844 560.355469 Z M 441.707031 618.890625 L 356.617188 618.890625 C 352.820312 618.890625 349.65625 615.726562 349.65625 611.929688 L 349.65625 579.972656 C 349.65625 576.175781 352.820312 573.011719 356.617188 573.011719 L 448.347656 573.011719 Z M 441.707031 618.890625 " fill-opacity="1" fill-rule="nonzero"/></svg>