<svg xmlns="http://www.w3.org/2000/svg" xmlns:xlink="http://www.w3.org/1999/xlink" width="1080" zoomAndPan="magnify" viewBox="0 0 810 809.999993" height="1080" preserveAspectRatio="xMidYMid meet" version="1.0"><defs><clipPath id="033d4c41af"><path d="M 311 670 L 464 670 L 464 795.675781 L 311 795.675781 Z M 311 670 " clip-rule="nonzero"/></clipPath></defs><path fill="#000000" d="M 226.480469 649.5625 C 226.480469 651.042969 226.59375 652.523438 226.828125 654.003906 C 227.0625 655.484375 227.410156 656.960938 227.875 658.433594 C 228.339844 659.910156 228.921875 661.378906 229.617188 662.84375 C 230.316406 664.308594 231.128906 665.769531 232.054688 667.222656 C 232.980469 668.675781 234.019531 670.121094 235.171875 671.558594 C 236.328125 672.992188 237.59375 674.421875 238.972656 675.839844 C 240.347656 677.257812 241.839844 678.664062 243.4375 680.058594 C 245.035156 681.453125 246.746094 682.835938 248.5625 684.203125 C 250.378906 685.574219 252.300781 686.925781 254.332031 688.265625 C 256.363281 689.605469 258.496094 690.929688 260.734375 692.234375 C 262.972656 693.539062 265.3125 694.828125 267.753906 696.101562 C 270.195312 697.371094 272.734375 698.621094 275.371094 699.855469 C 278.007812 701.085938 280.742188 702.296875 283.570312 703.488281 C 286.398438 704.675781 289.316406 705.84375 292.332031 706.988281 C 295.34375 708.136719 298.441406 709.257812 301.628906 710.355469 C 304.820312 711.453125 308.09375 712.523438 311.449219 713.570312 C 314.804688 714.621094 318.242188 715.640625 321.761719 716.636719 C 325.28125 717.632812 328.875 718.597656 332.542969 719.539062 C 336.214844 720.476562 339.957031 721.390625 343.769531 722.273438 C 347.582031 723.152344 351.464844 724.007812 355.410156 724.832031 C 359.359375 725.652344 363.367188 726.445312 367.441406 727.207031 C 371.511719 727.96875 375.644531 728.699219 379.832031 729.398438 C 384.015625 730.09375 388.257812 730.761719 392.550781 731.394531 C 396.839844 732.027344 401.179688 732.628906 405.566406 733.195312 C 409.953125 733.761719 414.382812 734.296875 418.851562 734.792969 C 423.320312 735.292969 427.828125 735.757812 432.371094 736.1875 C 436.914062 736.617188 441.488281 737.011719 446.09375 737.375 C 450.699219 737.734375 455.332031 738.058594 459.988281 738.347656 C 464.644531 738.636719 469.320312 738.890625 474.019531 739.105469 C 478.714844 739.324219 483.425781 739.503906 488.148438 739.652344 C 492.875 739.796875 497.609375 739.90625 502.351562 739.976562 C 507.09375 740.050781 511.835938 740.085938 516.585938 740.085938 C 521.332031 740.085938 526.078125 740.050781 530.820312 739.976562 C 535.5625 739.90625 540.296875 739.796875 545.019531 739.652344 C 549.746094 739.503906 554.457031 739.324219 559.152344 739.105469 C 563.847656 738.890625 568.527344 738.636719 573.183594 738.347656 C 577.839844 738.058594 582.46875 737.734375 587.074219 737.375 C 591.679688 737.011719 596.253906 736.617188 600.796875 736.1875 C 605.34375 735.757812 609.847656 735.292969 614.320312 734.792969 C 618.789062 734.296875 623.21875 733.761719 627.605469 733.195312 C 631.992188 732.628906 636.328125 732.027344 640.621094 731.394531 C 644.914062 730.761719 649.152344 730.097656 653.339844 729.398438 C 657.527344 728.699219 661.65625 727.96875 665.730469 727.207031 C 669.800781 726.445312 673.8125 725.652344 677.757812 724.832031 C 681.707031 724.007812 685.589844 723.152344 689.402344 722.273438 C 693.214844 721.390625 696.957031 720.476562 700.625 719.539062 C 704.296875 718.597656 707.890625 717.628906 711.410156 716.636719 C 714.925781 715.640625 718.363281 714.621094 721.722656 713.570312 C 725.078125 712.523438 728.351562 711.453125 731.539062 710.355469 C 734.726562 709.257812 737.828125 708.136719 740.839844 706.988281 C 743.851562 705.84375 746.773438 704.675781 749.601562 703.488281 C 752.429688 702.296875 755.160156 701.085938 757.800781 699.855469 C 760.4375 698.621094 762.976562 697.371094 765.417969 696.101562 C 767.859375 694.828125 770.199219 693.539062 772.4375 692.234375 C 774.675781 690.929688 776.808594 689.605469 778.839844 688.265625 C 780.867188 686.925781 782.792969 685.574219 784.609375 684.203125 C 786.425781 682.835938 788.132812 681.453125 789.734375 680.058594 C 791.332031 678.664062 792.820312 677.257812 794.199219 675.839844 C 795.578125 674.421875 796.84375 672.992188 797.996094 671.558594 C 799.152344 670.121094 800.191406 668.675781 801.117188 667.222656 C 802.042969 665.769531 802.855469 664.308594 803.550781 662.84375 C 804.25 661.378906 804.828125 659.910156 805.292969 658.433594 C 805.761719 656.960938 806.109375 655.484375 806.34375 654.003906 C 806.574219 652.523438 806.691406 651.042969 806.691406 649.5625 C 806.691406 648.078125 806.574219 646.597656 806.34375 645.121094 C 806.109375 643.640625 805.761719 642.164062 805.292969 640.6875 C 804.828125 639.214844 804.25 637.742188 803.550781 636.277344 C 802.855469 634.8125 802.042969 633.351562 801.117188 631.898438 C 800.191406 630.449219 799.152344 629.003906 797.996094 627.566406 C 796.84375 626.128906 795.578125 624.699219 794.199219 623.28125 C 792.820312 621.863281 791.332031 620.457031 789.734375 619.0625 C 788.132812 617.667969 786.425781 616.285156 784.609375 614.917969 C 782.792969 613.550781 780.867188 612.195312 778.839844 610.855469 C 776.808594 609.515625 774.675781 608.195312 772.4375 606.886719 C 770.199219 605.582031 767.859375 604.292969 765.417969 603.023438 C 762.976562 601.75 760.4375 600.5 757.800781 599.269531 C 755.160156 598.035156 752.429688 596.824219 749.601562 595.636719 C 746.773438 594.445312 743.851562 593.277344 740.839844 592.132812 C 737.828125 590.988281 734.726562 589.867188 731.539062 588.769531 C 728.351562 587.671875 725.078125 586.597656 721.722656 585.550781 C 718.363281 584.503906 714.925781 583.480469 711.410156 582.484375 C 707.890625 581.492188 704.296875 580.523438 700.625 579.582031 C 696.957031 578.644531 693.214844 577.734375 689.402344 576.851562 C 685.589844 575.96875 681.707031 575.113281 677.757812 574.292969 C 673.8125 573.46875 669.800781 572.675781 665.730469 571.914062 C 661.65625 571.152344 657.527344 570.421875 653.339844 569.726562 C 649.152344 569.027344 644.914062 568.359375 640.621094 567.726562 C 636.328125 567.09375 631.992188 566.492188 627.605469 565.925781 C 623.21875 565.359375 618.789062 564.828125 614.320312 564.328125 C 609.847656 563.828125 605.34375 563.363281 600.796875 562.933594 C 596.253906 562.503906 591.679688 562.109375 587.074219 561.75 C 582.46875 561.386719 577.839844 561.0625 573.183594 560.773438 C 568.527344 560.484375 563.847656 560.234375 559.152344 560.015625 C 554.457031 559.796875 549.746094 559.617188 545.019531 559.472656 C 540.296875 559.328125 535.5625 559.21875 530.820312 559.144531 C 526.078125 559.070312 521.332031 559.035156 516.585938 559.035156 C 511.835938 559.035156 507.09375 559.070312 502.351562 559.144531 C 497.609375 559.21875 492.875 559.328125 488.148438 559.472656 C 483.425781 559.617188 478.714844 559.796875 474.019531 560.015625 C 469.320312 560.234375 464.644531 560.484375 459.988281 560.773438 C 455.332031 561.0625 450.699219 561.386719 446.09375 561.75 C 441.488281 562.109375 436.914062 562.503906 432.371094 562.933594 C 427.828125 563.363281 423.320312 563.828125 418.851562 564.328125 C 414.382812 564.828125 409.953125 565.359375 405.566406 565.925781 C 401.179688 566.492188 396.839844 567.09375 392.550781 567.726562 C 388.257812 568.359375 384.015625 569.027344 379.832031 569.726562 C 375.644531 570.421875 371.511719 571.152344 367.441406 571.914062 C 363.367188 572.675781 359.359375 573.46875 355.410156 574.292969 C 351.464844 575.113281 347.582031 575.96875 343.769531 576.851562 C 339.957031 577.734375 336.214844 578.644531 332.542969 579.582031 C 328.875 580.523438 325.28125 581.492188 321.761719 582.484375 C 318.242188 583.480469 314.804688 584.503906 311.449219 585.550781 C 308.09375 586.597656 304.820312 587.671875 301.628906 588.769531 C 298.441406 589.867188 295.34375 590.988281 292.332031 592.132812 C 289.316406 593.277344 286.398438 594.445312 283.570312 595.636719 C 280.742188 596.824219 278.007812 598.035156 275.371094 599.269531 C 272.734375 600.5 270.195312 601.75 267.753906 603.023438 C 265.3125 604.292969 262.972656 605.582031 260.734375 606.886719 C 258.496094 608.195312 256.363281 609.515625 254.332031 610.855469 C 252.300781 612.195312 250.378906 613.550781 248.5625 614.917969 C 246.746094 616.285156 245.035156 617.667969 243.4375 619.0625 C 241.839844 620.457031 240.347656 621.863281 238.972656 623.28125 C 237.59375 624.699219 236.328125 626.128906 235.171875 627.566406 C 234.019531 629.003906 232.980469 630.449219 232.054688 631.898438 C 231.128906 633.351562 230.316406 634.8125 229.617188 636.277344 C 228.921875 637.742188 228.339844 639.214844 227.875 640.6875 C 227.410156 642.164062 227.0625 643.640625 226.828125 645.121094 C 226.59375 646.597656 226.480469 648.078125 226.480469 649.5625 Z M 226.480469 649.5625 " fill-opacity="1" fill-rule="nonzero"/><path fill="#e29629" d="M 365.628906 503.445312 C 380.382812 475.496094 409.425781 457.796875 441.109375 457.796875 L 592.375 457.796875 C 624.054688 457.796875 653.097656 475.34375 667.851562 503.445312 C 688.351562 542.421875 700.308594 589.46875 700.308594 640.398438 C 700.308594 662.757812 697.980469 684.496094 693.628906 704.996094 C 644.710938 716.796875 583.367188 723.78125 516.742188 723.78125 C 450.117188 723.78125 388.769531 716.796875 339.851562 704.996094 C 335.5 684.496094 333.171875 662.757812 333.171875 640.398438 C 333.015625 589.625 345.128906 542.421875 365.628906 503.445312 Z M 365.628906 503.445312 " fill-opacity="1" fill-rule="nonzero"/><path fill="#000000" d="M 357.710938 499.410156 C 374.015625 468.355469 405.855469 449.101562 440.953125 449.101562 L 592.21875 449.101562 C 627.160156 449.101562 659.152344 468.355469 675.460938 499.410156 C 697.359375 541.023438 709.003906 589.78125 709.003906 640.554688 C 709.003906 661.828125 706.988281 682.632812 702.949219 702.820312 C 696.890625 704.375 690.523438 705.925781 684.003906 707.324219 C 688.816406 685.894531 691.300781 663.378906 691.300781 640.554688 C 691.300781 592.730469 680.429688 546.769531 659.773438 507.640625 C 646.574219 482.484375 620.636719 466.800781 592.21875 466.800781 L 440.953125 466.800781 C 412.53125 466.800781 386.597656 482.484375 373.394531 507.640625 C 352.742188 546.769531 341.871094 592.730469 341.871094 640.554688 C 341.871094 663.378906 344.355469 685.894531 349.167969 707.324219 C 342.644531 705.925781 336.277344 704.375 330.222656 702.820312 C 326.183594 682.632812 324.164062 661.828125 324.164062 640.554688 C 324.320312 589.78125 335.8125 541.023438 357.710938 499.410156 Z M 357.710938 499.410156 " fill-opacity="1" fill-rule="nonzero"/><path fill="#ffffff" d="M 516.585938 654.375 C 550.90625 654.375 578.863281 682.324219 578.863281 716.640625 C 578.863281 718.347656 578.707031 720.054688 578.707031 721.765625 C 558.671875 723.160156 538.015625 723.78125 516.585938 723.78125 C 495.308594 723.78125 474.5 723.007812 454.464844 721.765625 C 454.308594 720.054688 454.308594 718.347656 454.308594 716.640625 C 454.308594 682.324219 482.261719 654.375 516.585938 654.375 Z M 516.585938 654.375 " fill-opacity="1" fill-rule="nonzero"/><path fill="#e29629" d="M 319.972656 704.375 C 319.972656 704.375 327.425781 722.539062 331.464844 732.167969 C 334.105469 738.378906 336.746094 744.277344 339.695312 750.023438 C 345.441406 761.515625 351.5 771.761719 357.710938 780.457031 C 360.503906 784.339844 365.007812 786.667969 369.824219 786.667969 C 384.734375 786.667969 398.867188 785.582031 411.445312 783.5625 C 424.957031 781.390625 436.914062 778.285156 446.234375 774.246094 C 451.511719 772.074219 454.929688 766.792969 454.929688 761.046875 L 454.929688 744.589844 C 454.929688 738.84375 451.511719 733.566406 446.234375 731.390625 C 434.273438 726.421875 417.96875 722.539062 399.488281 720.523438 C 397.777344 715.707031 396.070312 710.894531 394.050781 706.082031 C 390.011719 696.300781 387.0625 686.671875 382.558594 678.285156 " fill-opacity="1" fill-rule="nonzero"/><path fill="#e29629" d="M 319.972656 704.375 C 319.972656 704.375 327.425781 722.539062 331.464844 732.167969 C 334.105469 738.378906 336.746094 744.277344 339.695312 750.023438 C 345.441406 761.515625 351.5 771.761719 357.710938 780.457031 C 360.503906 784.339844 365.007812 786.667969 369.824219 786.667969 C 384.734375 786.667969 398.867188 785.582031 411.445312 783.5625 C 424.957031 781.390625 436.914062 778.285156 446.234375 774.246094 C 451.511719 772.074219 454.929688 766.792969 454.929688 761.046875 L 454.929688 744.589844 C 454.929688 738.84375 451.511719 733.566406 446.234375 731.390625 C 434.273438 726.421875 417.96875 722.539062 399.488281 720.523438 C 397.777344 715.707031 396.070312 710.894531 394.050781 706.082031 C 390.011719 696.300781 387.0625 686.671875 382.558594 678.285156 " fill-opacity="1" fill-rule="nonzero"/><g clip-path="url(#033d4c41af)"><path fill="#000000" d="M 369.980469 795.675781 C 384.886719 795.675781 399.488281 794.589844 413 792.414062 C 427.285156 790.085938 439.710938 786.824219 449.804688 782.632812 C 458.347656 779.0625 463.9375 770.675781 463.9375 761.359375 L 463.9375 744.898438 C 463.9375 735.582031 458.347656 727.199219 449.804688 723.628906 C 438.15625 718.8125 423.09375 715.085938 406.164062 712.914062 C 404.921875 709.652344 403.679688 706.546875 402.4375 703.285156 C 401.039062 700.027344 399.953125 696.921875 398.710938 693.660156 C 396.378906 687.292969 393.742188 680.617188 390.480469 674.558594 C 388.148438 670.367188 382.714844 668.816406 378.519531 671.144531 C 374.171875 673.472656 372.621094 678.90625 375.105469 683.101562 C 377.898438 688.070312 380.074219 693.8125 382.25 700.027344 C 383.492188 703.441406 384.734375 706.703125 386.128906 710.117188 C 387.996094 714.777344 389.859375 719.433594 391.410156 724.09375 C 392.5 727.355469 395.449219 729.527344 398.710938 729.992188 C 416.257812 731.855469 431.632812 735.429688 442.972656 740.242188 C 444.992188 741.019531 446.234375 743.035156 446.234375 745.367188 L 446.234375 761.824219 C 446.234375 764 444.992188 766.015625 442.972656 766.949219 C 434.273438 770.519531 422.9375 773.625 410.203125 775.644531 C 397.46875 777.664062 383.957031 778.75 369.980469 778.75 C 367.960938 778.75 366.25 777.816406 365.007812 776.265625 C 358.953125 767.726562 353.050781 757.789062 347.617188 746.917969 C 344.664062 740.863281 342.023438 735.273438 339.695312 729.683594 L 328.203125 701.890625 L 311.894531 708.566406 L 323.386719 736.359375 C 325.871094 742.414062 328.667969 748.472656 331.773438 754.835938 C 337.519531 766.484375 343.886719 777.195312 350.566406 786.511719 C 355.070312 791.949219 362.214844 795.675781 369.980469 795.675781 Z M 369.980469 795.675781 " fill-opacity="1" fill-rule="nonzero"/></g><path fill="#e29629" d="M 615.359375 217.429688 C 663.035156 197.710938 685.867188 142.433594 666.140625 94.761719 C 646.417969 47.09375 591.128906 24.269531 543.453125 43.988281 C 495.773438 63.707031 472.945312 118.984375 492.667969 166.65625 C 512.546875 214.324219 567.679688 237.148438 615.359375 217.429688 Z M 615.359375 217.429688 " fill-opacity="1" fill-rule="nonzero"/><path fill="#000000" d="M 579.636719 233.421875 C 592.839844 233.421875 606.195312 230.785156 618.773438 225.660156 C 671.113281 203.921875 695.960938 143.828125 674.375 91.503906 C 652.628906 39.019531 592.527344 14.175781 540.191406 35.757812 C 487.855469 57.496094 463.003906 117.589844 484.59375 169.917969 C 495 195.226562 514.875 214.789062 540.191406 225.347656 C 552.925781 230.785156 566.4375 233.421875 579.636719 233.421875 Z M 579.328125 45.695312 C 612.71875 45.695312 644.554688 65.414062 658.066406 98.179688 C 676.082031 141.5 655.425781 191.34375 612.097656 209.355469 C 591.128906 218.050781 568.144531 218.050781 547.023438 209.199219 C 525.902344 200.503906 509.597656 184.203125 500.898438 163.238281 C 482.882812 119.917969 503.539062 70.074219 546.871094 52.0625 C 557.585938 47.714844 568.613281 45.695312 579.328125 45.695312 Z M 579.328125 45.695312 " fill-opacity="1" fill-rule="nonzero"/><path fill="#a16b1d" d="M 595.011719 168.207031 C 615.667969 159.667969 625.453125 135.910156 616.910156 115.257812 C 608.371094 94.609375 584.609375 84.824219 563.953125 93.367188 C 543.296875 101.90625 533.511719 125.664062 542.054688 146.3125 C 550.597656 166.808594 574.359375 176.59375 595.011719 168.207031 Z M 595.011719 168.207031 " fill-opacity="1" fill-rule="nonzero"/><path fill="#e29629" d="M 153.019531 408.882812 C 200.699219 389.164062 223.527344 333.886719 203.804688 286.21875 C 184.082031 238.546875 128.792969 215.722656 81.117188 235.441406 C 33.4375 255.160156 10.609375 310.441406 30.332031 358.109375 C 50.054688 405.777344 105.1875 428.605469 153.019531 408.882812 Z M 153.019531 408.882812 " fill-opacity="1" fill-rule="nonzero"/><path fill="#000000" d="M 117.144531 424.878906 C 130.191406 424.878906 143.546875 422.394531 156.28125 417.113281 C 208.621094 395.375 233.46875 335.285156 211.878906 282.957031 C 190.136719 230.628906 130.035156 205.785156 77.699219 227.367188 C 25.363281 249.105469 0.511719 309.199219 22.101562 361.527344 C 38.5625 400.964844 76.921875 424.878906 117.144531 424.878906 Z M 149.605469 400.808594 C 106.273438 418.820312 56.421875 398.171875 38.40625 354.847656 C 20.390625 311.527344 41.046875 261.683594 84.375 243.671875 C 105.1875 234.976562 128.328125 235.132812 149.449219 243.828125 C 170.570312 252.523438 186.875 268.828125 195.574219 289.789062 C 213.589844 332.953125 192.933594 382.796875 149.605469 400.808594 Z M 149.605469 400.808594 " fill-opacity="1" fill-rule="nonzero"/><path fill="#a16b1d" d="M 132.519531 359.664062 C 153.175781 351.121094 162.960938 327.363281 154.417969 306.714844 C 145.875 286.0625 122.117188 276.28125 101.460938 284.820312 C 80.804688 293.359375 71.019531 317.117188 79.5625 337.769531 C 88.105469 358.265625 111.867188 368.203125 132.519531 359.664062 Z M 132.519531 359.664062 " fill-opacity="1" fill-rule="nonzero"/><path fill="#e29629" d="M 373.242188 717.570312 L 677.945312 591.332031 C 760.410156 557.171875 799.546875 462.765625 765.382812 380.3125 L 752.335938 348.949219 C 683.378906 182.339844 492.359375 103.304688 325.875 172.246094 C 159.234375 241.1875 80.183594 432.175781 149.136719 598.785156 L 162.183594 630.152344 C 196.351562 712.601562 290.773438 751.730469 373.242188 717.570312 Z M 373.242188 717.570312 " fill-opacity="1" fill-rule="nonzero"/><path fill="#000000" d="M 311.585938 738.6875 C 333.328125 738.6875 355.226562 734.496094 376.5 725.644531 L 681.363281 599.5625 C 768.175781 563.695312 809.488281 463.851562 773.613281 377.054688 L 760.566406 345.6875 C 726.246094 262.925781 661.792969 198.488281 579.015625 164.324219 C 496.242188 130.011719 405.078125 130.011719 322.457031 164.324219 C 151.621094 235.132812 70.246094 431.554688 140.90625 602.359375 L 153.953125 633.722656 C 181.128906 699.09375 244.804688 738.6875 311.585938 738.6875 Z M 450.738281 156.097656 C 491.890625 156.097656 533.046875 164.171875 572.339844 180.476562 C 650.765625 212.925781 711.800781 273.949219 744.257812 352.363281 L 757.304688 383.730469 C 789.453125 461.523438 752.492188 550.960938 674.683594 583.257812 L 369.824219 709.496094 C 292.015625 741.792969 202.5625 704.683594 170.257812 626.890625 L 157.214844 595.523438 C 90.121094 433.730469 167.308594 247.554688 329.132812 180.476562 C 368.425781 164.171875 409.582031 156.097656 450.738281 156.097656 Z M 450.738281 156.097656 " fill-opacity="1" fill-rule="nonzero"/><path fill="#ffffff" d="M 373.242188 537.761719 C 373.242188 539.464844 373.28125 541.167969 373.367188 542.867188 C 373.449219 544.566406 373.574219 546.265625 373.742188 547.960938 C 373.910156 549.65625 374.117188 551.34375 374.367188 553.027344 C 374.617188 554.710938 374.90625 556.390625 375.238281 558.058594 C 375.570312 559.730469 375.945312 561.390625 376.359375 563.042969 C 376.773438 564.691406 377.226562 566.332031 377.722656 567.960938 C 378.214844 569.59375 378.75 571.207031 379.324219 572.8125 C 379.898438 574.414062 380.507812 576.003906 381.160156 577.574219 C 381.8125 579.148438 382.503906 580.703125 383.230469 582.242188 C 383.957031 583.78125 384.722656 585.304688 385.527344 586.804688 C 386.328125 588.304688 387.167969 589.785156 388.042969 591.246094 C 388.917969 592.707031 389.832031 594.144531 390.777344 595.5625 C 391.722656 596.976562 392.703125 598.367188 393.71875 599.734375 C 394.730469 601.105469 395.777344 602.445312 396.859375 603.761719 C 397.941406 605.078125 399.050781 606.367188 400.195312 607.628906 C 401.339844 608.890625 402.511719 610.121094 403.71875 611.328125 C 404.921875 612.53125 406.152344 613.703125 407.414062 614.847656 C 408.675781 615.992188 409.964844 617.101562 411.28125 618.183594 C 412.597656 619.261719 413.941406 620.308594 415.308594 621.324219 C 416.675781 622.339844 418.070312 623.316406 419.484375 624.265625 C 420.902344 625.210938 422.339844 626.121094 423.800781 626.996094 C 425.261719 627.871094 426.742188 628.710938 428.242188 629.511719 C 429.746094 630.316406 431.265625 631.082031 432.804688 631.808594 C 434.34375 632.535156 435.902344 633.226562 437.472656 633.878906 C 439.046875 634.53125 440.636719 635.140625 442.238281 635.714844 C 443.84375 636.289062 445.460938 636.824219 447.089844 637.316406 C 448.71875 637.8125 450.359375 638.265625 452.011719 638.679688 C 453.664062 639.09375 455.324219 639.464844 456.992188 639.796875 C 458.664062 640.128906 460.339844 640.421875 462.027344 640.671875 C 463.710938 640.921875 465.398438 641.128906 467.09375 641.296875 C 468.789062 641.464844 470.488281 641.589844 472.1875 641.671875 C 473.890625 641.753906 475.589844 641.796875 477.292969 641.796875 C 478.996094 641.796875 480.699219 641.753906 482.398438 641.671875 C 484.101562 641.589844 485.796875 641.464844 487.492188 641.296875 C 489.1875 641.128906 490.875 640.921875 492.5625 640.671875 C 494.246094 640.421875 495.921875 640.128906 497.59375 639.796875 C 499.261719 639.464844 500.925781 639.09375 502.578125 638.679688 C 504.226562 638.265625 505.867188 637.8125 507.5 637.316406 C 509.128906 636.824219 510.746094 636.289062 512.347656 635.714844 C 513.953125 635.140625 515.539062 634.53125 517.113281 633.878906 C 518.6875 633.226562 520.242188 632.535156 521.78125 631.808594 C 523.320312 631.082031 524.84375 630.316406 526.34375 629.511719 C 527.847656 628.710938 529.328125 627.871094 530.789062 626.996094 C 532.25 626.121094 533.6875 625.210938 535.101562 624.265625 C 536.519531 623.316406 537.910156 622.339844 539.277344 621.324219 C 540.644531 620.308594 541.988281 619.261719 543.304688 618.183594 C 544.621094 617.101562 545.910156 615.992188 547.171875 614.847656 C 548.433594 613.703125 549.667969 612.53125 550.871094 611.328125 C 552.074219 610.121094 553.25 608.890625 554.390625 607.628906 C 555.535156 606.367188 556.648438 605.078125 557.726562 603.761719 C 558.808594 602.445312 559.855469 601.105469 560.871094 599.734375 C 561.882812 598.367188 562.863281 596.976562 563.8125 595.5625 C 564.757812 594.144531 565.667969 592.707031 566.542969 591.246094 C 567.417969 589.785156 568.257812 588.304688 569.058594 586.804688 C 569.863281 585.304688 570.628906 583.78125 571.355469 582.242188 C 572.085938 580.703125 572.773438 579.148438 573.425781 577.574219 C 574.078125 576.003906 574.691406 574.414062 575.265625 572.8125 C 575.835938 571.207031 576.371094 569.59375 576.867188 567.960938 C 577.359375 566.332031 577.816406 564.691406 578.226562 563.042969 C 578.640625 561.390625 579.015625 559.730469 579.347656 558.058594 C 579.679688 556.390625 579.96875 554.710938 580.21875 553.027344 C 580.46875 551.34375 580.679688 549.65625 580.84375 547.960938 C 581.011719 546.265625 581.136719 544.566406 581.222656 542.867188 C 581.304688 541.167969 581.347656 539.464844 581.347656 537.761719 C 581.347656 536.058594 581.304688 534.359375 581.222656 532.65625 C 581.136719 530.957031 581.011719 529.261719 580.84375 527.566406 C 580.679688 525.871094 580.46875 524.183594 580.21875 522.496094 C 579.96875 520.8125 579.679688 519.136719 579.347656 517.464844 C 579.015625 515.796875 578.640625 514.136719 578.226562 512.484375 C 577.816406 510.832031 577.359375 509.191406 576.867188 507.5625 C 576.371094 505.933594 575.835938 504.316406 575.265625 502.714844 C 574.691406 501.113281 574.078125 499.523438 573.425781 497.949219 C 572.773438 496.378906 572.085938 494.820312 571.355469 493.28125 C 570.628906 491.742188 569.863281 490.222656 569.058594 488.722656 C 568.257812 487.21875 567.417969 485.738281 566.542969 484.277344 C 565.667969 482.816406 564.757812 481.378906 563.8125 479.964844 C 562.863281 478.546875 561.882812 477.15625 560.871094 475.789062 C 559.855469 474.421875 558.808594 473.082031 557.726562 471.765625 C 556.648438 470.449219 555.535156 469.160156 554.390625 467.898438 C 553.25 466.636719 552.074219 465.402344 550.871094 464.199219 C 549.667969 462.996094 548.433594 461.820312 547.171875 460.679688 C 545.910156 459.535156 544.621094 458.421875 543.304688 457.34375 C 541.988281 456.261719 540.644531 455.214844 539.277344 454.203125 C 537.910156 453.1875 536.519531 452.207031 535.101562 451.261719 C 533.6875 450.316406 532.25 449.40625 530.789062 448.53125 C 529.328125 447.65625 527.847656 446.816406 526.34375 446.011719 C 524.84375 445.210938 523.320312 444.445312 521.78125 443.71875 C 520.242188 442.988281 518.6875 442.300781 517.113281 441.648438 C 515.539062 440.996094 513.953125 440.382812 512.347656 439.808594 C 510.746094 439.238281 509.128906 438.703125 507.5 438.207031 C 505.867188 437.714844 504.226562 437.261719 502.578125 436.847656 C 500.925781 436.433594 499.261719 436.058594 497.59375 435.726562 C 495.921875 435.394531 494.246094 435.105469 492.5625 434.855469 C 490.875 434.605469 489.1875 434.394531 487.492188 434.230469 C 485.796875 434.0625 484.101562 433.9375 482.398438 433.855469 C 480.699219 433.769531 478.996094 433.730469 477.292969 433.730469 C 475.589844 433.730469 473.890625 433.769531 472.1875 433.855469 C 470.488281 433.9375 468.789062 434.0625 467.09375 434.230469 C 465.398438 434.394531 463.710938 434.605469 462.027344 434.855469 C 460.339844 435.105469 458.664062 435.394531 456.992188 435.726562 C 455.324219 436.058594 453.664062 436.433594 452.011719 436.847656 C 450.359375 437.261719 448.71875 437.714844 447.089844 438.207031 C 445.460938 438.703125 443.84375 439.238281 442.238281 439.808594 C 440.636719 440.382812 439.046875 440.996094 437.472656 441.648438 C 435.902344 442.300781 434.34375 442.988281 432.804688 443.71875 C 431.265625 444.445312 429.746094 445.210938 428.242188 446.011719 C 426.742188 446.816406 425.261719 447.65625 423.800781 448.53125 C 422.339844 449.40625 420.902344 450.316406 419.484375 451.261719 C 418.070312 452.207031 416.675781 453.1875 415.308594 454.203125 C 413.941406 455.214844 412.597656 456.261719 411.28125 457.34375 C 409.964844 458.421875 408.675781 459.535156 407.414062 460.679688 C 406.152344 461.820312 404.921875 462.996094 403.71875 464.199219 C 402.511719 465.402344 401.339844 466.636719 400.195312 467.898438 C 399.050781 469.160156 397.941406 470.449219 396.859375 471.765625 C 395.777344 473.082031 394.730469 474.421875 393.71875 475.789062 C 392.703125 477.15625 391.722656 478.546875 390.777344 479.964844 C 389.832031 481.378906 388.917969 482.816406 388.042969 484.277344 C 387.167969 485.738281 386.328125 487.21875 385.527344 488.722656 C 384.722656 490.222656 383.957031 491.742188 383.230469 493.28125 C 382.503906 494.820312 381.8125 496.378906 381.160156 497.949219 C 380.507812 499.523438 379.898438 501.113281 379.324219 502.714844 C 378.75 504.316406 378.214844 505.933594 377.722656 507.5625 C 377.226562 509.191406 376.773438 510.832031 376.359375 512.484375 C 375.945312 514.136719 375.570312 515.796875 375.238281 517.464844 C 374.90625 519.136719 374.617188 520.8125 374.367188 522.496094 C 374.117188 524.183594 373.910156 525.871094 373.742188 527.566406 C 373.574219 529.261719 373.449219 530.957031 373.367188 532.65625 C 373.28125 534.359375 373.242188 536.058594 373.242188 537.761719 Z M 373.242188 537.761719 " fill-opacity="1" fill-rule="nonzero"/><path fill="#000000" d="M 477.292969 546.613281 C 478.378906 546.613281 479.625 546.457031 480.710938 545.992188 C 485.214844 544.128906 487.386719 539.003906 485.523438 534.503906 L 451.359375 452.050781 C 449.496094 447.546875 444.371094 445.375 439.867188 447.238281 C 435.363281 449.101562 433.1875 454.226562 435.050781 458.726562 L 469.21875 541.179688 C 470.460938 544.441406 473.722656 546.613281 477.292969 546.613281 Z M 477.292969 546.613281 " fill-opacity="1" fill-rule="nonzero"/><path fill="#000000" d="M 447.941406 466.957031 C 463.316406 460.589844 470.617188 442.890625 464.25 427.519531 C 457.878906 412.144531 440.175781 404.847656 424.800781 411.214844 C 409.425781 417.578125 402.125 435.28125 408.496094 450.652344 C 414.863281 466.027344 432.566406 473.324219 447.941406 466.957031 Z M 447.941406 466.957031 " fill-opacity="1" fill-rule="nonzero"/><path fill="#000000" d="M 436.449219 478.136719 C 441.417969 478.136719 446.542969 477.207031 451.359375 475.1875 C 460.988281 471.148438 468.441406 463.695312 472.480469 454.070312 C 476.515625 444.441406 476.515625 433.882812 472.480469 424.257812 C 464.25 404.382812 441.417969 394.910156 421.539062 403.140625 C 411.910156 407.175781 404.457031 414.628906 400.417969 424.257812 C 396.378906 433.882812 396.378906 444.441406 400.417969 454.070312 C 404.457031 463.695312 411.910156 471.148438 421.539062 475.1875 C 426.355469 477.050781 431.324219 478.136719 436.449219 478.136719 Z M 436.292969 417.890625 C 444.679688 417.890625 452.601562 422.859375 456.015625 431.089844 C 458.191406 436.367188 458.191406 442.113281 456.015625 447.394531 C 453.84375 452.671875 449.804688 456.710938 444.523438 458.882812 C 439.246094 461.058594 433.5 461.058594 428.21875 458.882812 C 422.9375 456.710938 418.898438 452.671875 416.726562 447.394531 C 414.550781 442.113281 414.550781 436.367188 416.726562 431.089844 C 418.898438 425.808594 422.9375 421.773438 428.21875 419.597656 C 430.859375 418.355469 433.652344 417.890625 436.292969 417.890625 Z M 436.292969 417.890625 " fill-opacity="1" fill-rule="nonzero"/><path fill="#ff4f4f" d="M 506.335938 506.085938 L 521.246094 542.109375 C 529.476562 561.984375 520.003906 584.8125 500.125 593.039062 C 480.246094 601.269531 457.414062 591.796875 449.183594 571.921875 L 434.273438 535.898438 Z M 506.335938 506.085938 " fill-opacity="1" fill-rule="nonzero"/><path fill="#000000" d="M 485.214844 604.84375 C 491.269531 604.84375 497.484375 603.753906 503.382812 601.269531 C 515.1875 596.457031 524.351562 587.140625 529.320312 575.339844 C 534.132812 563.539062 534.132812 550.496094 529.320312 538.695312 L 514.410156 502.671875 C 512.546875 498.167969 507.421875 495.992188 502.917969 497.855469 L 430.859375 527.671875 C 426.355469 529.535156 424.179688 534.65625 426.042969 539.160156 L 440.953125 575.183594 C 448.71875 593.660156 466.578125 604.84375 485.214844 604.84375 Z M 501.519531 517.578125 L 513.011719 545.371094 C 516.121094 552.824219 516.121094 561.054688 513.011719 568.507812 C 509.90625 575.960938 504.160156 581.707031 496.707031 584.8125 C 481.332031 591.175781 463.625 583.878906 457.257812 568.507812 L 445.765625 540.714844 Z M 501.519531 517.578125 " fill-opacity="1" fill-rule="nonzero"/><path fill="#fcbcb1" d="M 480.367188 545.417969 C 479.261719 545.875 478.175781 546.371094 477.109375 546.902344 C 476.042969 547.433594 474.996094 548 473.976562 548.601562 C 472.957031 549.203125 471.964844 549.835938 471.003906 550.5 C 470.039062 551.164062 469.109375 551.855469 468.214844 552.574219 C 467.316406 553.296875 466.457031 554.042969 465.636719 554.8125 C 464.816406 555.585938 464.035156 556.378906 463.296875 557.191406 C 462.558594 558.003906 461.863281 558.835938 461.214844 559.683594 C 460.566406 560.53125 459.964844 561.394531 459.414062 562.269531 C 458.863281 563.144531 458.359375 564.027344 457.910156 564.921875 C 457.457031 565.8125 457.058594 566.710938 456.714844 567.613281 C 456.371094 568.515625 456.082031 569.417969 455.84375 570.324219 C 455.609375 571.226562 455.429688 572.125 455.304688 573.019531 C 455.179688 573.917969 455.113281 574.804688 455.101562 575.683594 C 455.089844 576.5625 455.136719 577.429688 455.238281 578.28125 C 455.339844 579.136719 455.496094 579.976562 455.710938 580.796875 C 455.921875 581.617188 456.191406 582.417969 456.515625 583.195312 C 456.835938 583.976562 457.214844 584.734375 457.644531 585.464844 C 458.074219 586.195312 458.554688 586.898438 459.085938 587.574219 C 459.617188 588.25 460.199219 588.894531 460.828125 589.507812 C 461.460938 590.121094 462.136719 590.703125 462.855469 591.246094 C 463.578125 591.792969 464.339844 592.300781 465.144531 592.773438 C 465.953125 593.246094 466.796875 593.679688 467.675781 594.074219 C 468.558594 594.46875 469.476562 594.820312 470.425781 595.132812 C 471.375 595.449219 472.355469 595.71875 473.367188 595.945312 C 474.375 596.175781 475.410156 596.359375 476.46875 596.5 C 477.527344 596.640625 478.605469 596.738281 479.703125 596.792969 C 480.800781 596.84375 481.910156 596.851562 483.039062 596.816406 C 484.164062 596.78125 485.300781 596.703125 486.445312 596.578125 C 487.585938 596.453125 488.734375 596.285156 489.886719 596.074219 C 491.035156 595.863281 492.183594 595.609375 493.332031 595.3125 C 494.476562 595.015625 495.613281 594.679688 496.746094 594.300781 C 497.875 593.921875 498.992188 593.503906 500.097656 593.046875 C 501.203125 592.589844 502.289062 592.09375 503.355469 591.5625 C 504.421875 591.03125 505.464844 590.464844 506.488281 589.863281 C 507.507812 589.265625 508.496094 588.632812 509.460938 587.96875 C 510.425781 587.304688 511.355469 586.609375 512.25 585.890625 C 513.148438 585.167969 514.007812 584.421875 514.828125 583.652344 C 515.648438 582.882812 516.429688 582.089844 517.167969 581.277344 C 517.90625 580.460938 518.601562 579.632812 519.25 578.78125 C 519.898438 577.933594 520.5 577.074219 521.050781 576.199219 C 521.601562 575.324219 522.105469 574.4375 522.554688 573.546875 C 523.007812 572.652344 523.402344 571.753906 523.75 570.851562 C 524.09375 569.949219 524.382812 569.046875 524.621094 568.144531 C 524.855469 567.242188 525.035156 566.339844 525.160156 565.445312 C 525.285156 564.550781 525.351562 563.664062 525.363281 562.78125 C 525.375 561.902344 525.328125 561.039062 525.226562 560.183594 C 525.125 559.328125 524.96875 558.492188 524.753906 557.671875 C 524.542969 556.847656 524.273438 556.050781 523.949219 555.269531 C 523.628906 554.488281 523.25 553.734375 522.820312 553.003906 C 522.390625 552.269531 521.910156 551.566406 521.378906 550.890625 C 520.84375 550.214844 520.265625 549.570312 519.632812 548.957031 C 519.003906 548.34375 518.328125 547.765625 517.609375 547.21875 C 516.886719 546.671875 516.125 546.164062 515.316406 545.691406 C 514.511719 545.21875 513.667969 544.785156 512.785156 544.390625 C 511.90625 543.996094 510.988281 543.644531 510.039062 543.332031 C 509.085938 543.019531 508.109375 542.75 507.097656 542.519531 C 506.089844 542.292969 505.054688 542.109375 503.996094 541.964844 C 502.9375 541.824219 501.859375 541.726562 500.761719 541.675781 C 499.664062 541.621094 498.550781 541.613281 497.425781 541.648438 C 496.300781 541.683594 495.164062 541.765625 494.019531 541.886719 C 492.875 542.011719 491.730469 542.179688 490.578125 542.390625 C 489.429688 542.601562 488.28125 542.855469 487.132812 543.152344 C 485.988281 543.449219 484.847656 543.785156 483.71875 544.164062 C 482.589844 544.542969 481.46875 544.960938 480.367188 545.417969 Z M 480.367188 545.417969 " fill-opacity="1" fill-rule="nonzero"/><path fill="#000000" d="M 485.523438 604.6875 C 491.582031 604.6875 497.792969 603.445312 503.539062 601.113281 C 522.019531 593.507812 533.824219 574.875 532.890625 554.84375 C 532.738281 552.824219 531.960938 550.804688 530.5625 549.253906 C 517.050781 534.503906 495.464844 529.6875 477.136719 537.296875 C 458.65625 544.90625 446.855469 563.539062 447.785156 583.570312 C 447.941406 585.585938 448.71875 587.605469 450.117188 589.160156 C 459.277344 599.25 472.324219 604.6875 485.523438 604.6875 Z M 515.1875 558.878906 C 514.410156 570.214844 507.421875 580.464844 496.707031 584.8125 C 486.144531 589.160156 473.875 586.984375 465.335938 579.53125 C 466.113281 568.195312 473.101562 557.949219 483.816406 553.601562 C 494.375 549.253906 506.644531 551.425781 515.1875 558.878906 Z M 515.1875 558.878906 " fill-opacity="1" fill-rule="nonzero"/><path fill="#000000" d="M 208.621094 521.925781 C 208.621094 522.839844 208.664062 523.753906 208.753906 524.664062 C 208.84375 525.574219 208.976562 526.480469 209.15625 527.378906 C 209.335938 528.273438 209.558594 529.164062 209.824219 530.039062 C 210.089844 530.914062 210.398438 531.773438 210.746094 532.621094 C 211.097656 533.464844 211.488281 534.292969 211.921875 535.101562 C 212.351562 535.90625 212.820312 536.691406 213.332031 537.453125 C 213.839844 538.214844 214.382812 538.949219 214.964844 539.65625 C 215.546875 540.363281 216.160156 541.039062 216.808594 541.6875 C 217.453125 542.335938 218.132812 542.949219 218.839844 543.53125 C 219.546875 544.109375 220.28125 544.65625 221.042969 545.164062 C 221.804688 545.671875 222.589844 546.144531 223.394531 546.574219 C 224.203125 547.003906 225.03125 547.398438 225.875 547.746094 C 226.722656 548.097656 227.582031 548.40625 228.460938 548.671875 C 229.335938 548.9375 230.222656 549.160156 231.121094 549.335938 C 232.019531 549.515625 232.921875 549.648438 233.832031 549.738281 C 234.746094 549.828125 235.65625 549.875 236.574219 549.875 C 237.488281 549.875 238.402344 549.828125 239.3125 549.738281 C 240.226562 549.648438 241.128906 549.515625 242.027344 549.335938 C 242.925781 549.160156 243.8125 548.9375 244.6875 548.671875 C 245.566406 548.40625 246.425781 548.097656 247.273438 547.746094 C 248.117188 547.398438 248.945312 547.003906 249.75 546.574219 C 250.558594 546.144531 251.34375 545.671875 252.105469 545.164062 C 252.867188 544.65625 253.601562 544.109375 254.308594 543.53125 C 255.015625 542.949219 255.691406 542.335938 256.339844 541.6875 C 256.988281 541.039062 257.601562 540.363281 258.183594 539.65625 C 258.765625 538.949219 259.308594 538.214844 259.816406 537.453125 C 260.324219 536.691406 260.796875 535.90625 261.226562 535.101562 C 261.660156 534.292969 262.050781 533.464844 262.402344 532.621094 C 262.75 531.773438 263.058594 530.914062 263.324219 530.039062 C 263.589844 529.164062 263.8125 528.273438 263.992188 527.378906 C 264.167969 526.480469 264.304688 525.574219 264.394531 524.664062 C 264.484375 523.753906 264.527344 522.839844 264.527344 521.925781 C 264.527344 521.007812 264.484375 520.097656 264.394531 519.183594 C 264.304688 518.273438 264.167969 517.371094 263.992188 516.472656 C 263.8125 515.574219 263.589844 514.6875 263.324219 513.8125 C 263.058594 512.9375 262.75 512.074219 262.402344 511.230469 C 262.050781 510.382812 261.660156 509.558594 261.226562 508.75 C 260.796875 507.941406 260.324219 507.15625 259.816406 506.398438 C 259.308594 505.636719 258.765625 504.902344 258.183594 504.195312 C 257.601562 503.484375 256.988281 502.808594 256.339844 502.160156 C 255.691406 501.515625 255.015625 500.898438 254.308594 500.320312 C 253.601562 499.738281 252.867188 499.195312 252.105469 498.6875 C 251.34375 498.175781 250.558594 497.707031 249.75 497.277344 C 248.945312 496.84375 248.117188 496.453125 247.273438 496.101562 C 246.425781 495.753906 245.566406 495.445312 244.6875 495.179688 C 243.8125 494.914062 242.925781 494.691406 242.027344 494.511719 C 241.128906 494.332031 240.226562 494.199219 239.3125 494.109375 C 238.402344 494.019531 237.488281 493.976562 236.574219 493.976562 C 235.65625 493.976562 234.746094 494.019531 233.832031 494.109375 C 232.921875 494.199219 232.019531 494.332031 231.121094 494.511719 C 230.222656 494.691406 229.335938 494.914062 228.460938 495.179688 C 227.582031 495.445312 226.722656 495.753906 225.875 496.101562 C 225.03125 496.453125 224.203125 496.84375 223.394531 497.277344 C 222.589844 497.707031 221.804688 498.175781 221.042969 498.6875 C 220.28125 499.195312 219.546875 499.738281 218.839844 500.320312 C 218.132812 500.898438 217.453125 501.515625 216.808594 502.160156 C 216.160156 502.808594 215.546875 503.484375 214.964844 504.195312 C 214.382812 504.902344 213.839844 505.636719 213.332031 506.398438 C 212.820312 507.15625 212.351562 507.941406 211.921875 508.75 C 211.488281 509.558594 211.097656 510.382812 210.746094 511.230469 C 210.398438 512.074219 210.089844 512.933594 209.824219 513.8125 C 209.558594 514.6875 209.335938 515.574219 209.15625 516.472656 C 208.976562 517.371094 208.84375 518.273438 208.753906 519.183594 C 208.664062 520.097656 208.621094 521.007812 208.621094 521.925781 Z M 208.621094 521.925781 " fill-opacity="1" fill-rule="nonzero"/><path fill="#000000" d="M 608.214844 356.402344 C 608.214844 357.316406 608.257812 358.230469 608.347656 359.140625 C 608.4375 360.050781 608.574219 360.957031 608.75 361.855469 C 608.929688 362.753906 609.152344 363.640625 609.417969 364.515625 C 609.683594 365.390625 609.992188 366.25 610.34375 367.097656 C 610.691406 367.941406 611.082031 368.769531 611.515625 369.578125 C 611.945312 370.382812 612.417969 371.167969 612.925781 371.929688 C 613.433594 372.691406 613.980469 373.425781 614.558594 374.132812 C 615.140625 374.839844 615.753906 375.515625 616.402344 376.164062 C 617.050781 376.8125 617.726562 377.425781 618.433594 378.007812 C 619.140625 378.585938 619.875 379.132812 620.636719 379.640625 C 621.398438 380.148438 622.183594 380.621094 622.992188 381.050781 C 623.796875 381.480469 624.625 381.875 625.472656 382.222656 C 626.316406 382.574219 627.179688 382.882812 628.054688 383.148438 C 628.929688 383.414062 629.816406 383.636719 630.714844 383.8125 C 631.613281 383.992188 632.515625 384.125 633.429688 384.214844 C 634.339844 384.304688 635.253906 384.351562 636.167969 384.351562 C 637.085938 384.351562 637.996094 384.304688 638.910156 384.214844 C 639.820312 384.125 640.722656 383.992188 641.621094 383.8125 C 642.519531 383.636719 643.40625 383.414062 644.285156 383.148438 C 645.160156 382.882812 646.019531 382.574219 646.867188 382.222656 C 647.710938 381.875 648.539062 381.480469 649.347656 381.050781 C 650.152344 380.621094 650.9375 380.148438 651.699219 379.640625 C 652.460938 379.132812 653.195312 378.585938 653.902344 378.007812 C 654.609375 377.425781 655.289062 376.8125 655.9375 376.164062 C 656.582031 375.515625 657.195312 374.839844 657.777344 374.132812 C 658.359375 373.425781 658.902344 372.691406 659.410156 371.929688 C 659.921875 371.167969 660.390625 370.382812 660.824219 369.578125 C 661.253906 368.769531 661.644531 367.941406 661.996094 367.097656 C 662.347656 366.25 662.652344 365.390625 662.917969 364.515625 C 663.183594 363.640625 663.40625 362.753906 663.585938 361.855469 C 663.765625 360.957031 663.898438 360.050781 663.988281 359.140625 C 664.078125 358.230469 664.125 357.316406 664.125 356.402344 C 664.125 355.484375 664.078125 354.574219 663.988281 353.660156 C 663.898438 352.75 663.765625 351.847656 663.585938 350.949219 C 663.40625 350.050781 663.183594 349.164062 662.917969 348.289062 C 662.652344 347.414062 662.34375 346.550781 661.996094 345.707031 C 661.644531 344.859375 661.253906 344.035156 660.824219 343.226562 C 660.390625 342.417969 659.921875 341.632812 659.410156 340.875 C 658.902344 340.113281 658.359375 339.378906 657.777344 338.671875 C 657.195312 337.964844 656.582031 337.285156 655.9375 336.636719 C 655.289062 335.992188 654.609375 335.375 653.902344 334.796875 C 653.195312 334.214844 652.460938 333.671875 651.699219 333.164062 C 650.9375 332.652344 650.152344 332.183594 649.347656 331.753906 C 648.539062 331.320312 647.710938 330.929688 646.867188 330.578125 C 646.019531 330.230469 645.160156 329.921875 644.285156 329.65625 C 643.40625 329.390625 642.519531 329.167969 641.621094 328.988281 C 640.722656 328.808594 639.820312 328.675781 638.910156 328.585938 C 637.996094 328.496094 637.085938 328.453125 636.167969 328.453125 C 635.253906 328.453125 634.339844 328.496094 633.429688 328.585938 C 632.515625 328.675781 631.613281 328.808594 630.714844 328.988281 C 629.816406 329.167969 628.929688 329.390625 628.054688 329.65625 C 627.179688 329.921875 626.316406 330.230469 625.472656 330.578125 C 624.625 330.929688 623.796875 331.320312 622.992188 331.753906 C 622.183594 332.183594 621.398438 332.652344 620.636719 333.164062 C 619.875 333.671875 619.140625 334.214844 618.433594 334.796875 C 617.726562 335.375 617.050781 335.992188 616.402344 336.636719 C 615.753906 337.285156 615.140625 337.964844 614.558594 338.671875 C 613.980469 339.378906 613.433594 340.113281 612.925781 340.875 C 612.417969 341.632812 611.945312 342.417969 611.515625 343.226562 C 611.082031 344.035156 610.691406 344.859375 610.34375 345.707031 C 609.992188 346.550781 609.683594 347.414062 609.417969 348.289062 C 609.152344 349.164062 608.929688 350.050781 608.75 350.949219 C 608.574219 351.847656 608.4375 352.75 608.347656 353.660156 C 608.257812 354.574219 608.214844 355.484375 608.214844 356.402344 Z M 608.214844 356.402344 " fill-opacity="1" fill-rule="nonzero"/><path fill="#e29629" d="M 638.964844 608.722656 C 638.964844 608.722656 652.785156 594.902344 660.242188 587.449219 C 681.984375 565.710938 704.65625 549.875 722.828125 542.265625 C 728.261719 540.09375 734.476562 541.179688 738.667969 545.371094 L 750.316406 557.015625 C 754.507812 561.210938 755.597656 567.421875 753.421875 572.855469 C 745.96875 591.023438 729.972656 613.691406 708.230469 635.429688 C 700.773438 642.882812 694.40625 650.804688 686.953125 656.703125 " fill-opacity="1" fill-rule="nonzero"/><path fill="#000000" d="M 686.953125 665.398438 C 688.816406 665.398438 690.835938 664.777344 692.386719 663.535156 C 697.824219 659.1875 702.636719 654.0625 707.296875 648.941406 C 709.628906 646.457031 711.957031 643.972656 714.441406 641.488281 C 736.027344 619.902344 753.265625 595.992188 761.5 576.117188 C 765.226562 567.265625 763.207031 557.328125 756.527344 550.652344 L 744.882812 539.003906 C 738.203125 532.328125 728.261719 530.464844 719.410156 534.035156 C 699.53125 542.265625 675.617188 559.347656 654.027344 581.085938 L 632.753906 602.511719 C 629.335938 605.929688 629.335938 611.519531 632.753906 614.933594 C 636.167969 618.351562 641.757812 618.351562 645.175781 614.933594 L 666.453125 593.660156 C 686.488281 573.632812 708.230469 557.792969 726.089844 550.496094 C 728.261719 549.5625 730.75 550.03125 732.300781 551.582031 L 743.949219 563.226562 C 745.503906 564.78125 745.96875 567.265625 745.035156 569.4375 C 737.582031 587.296875 721.894531 609.035156 701.863281 629.066406 C 699.222656 631.703125 696.738281 634.34375 694.40625 636.828125 C 689.902344 641.640625 685.710938 646.144531 681.363281 649.714844 C 677.632812 652.820312 677.011719 658.257812 679.964844 662.136719 C 681.828125 664.3125 684.3125 665.398438 686.953125 665.398438 Z M 686.953125 665.398438 " fill-opacity="1" fill-rule="nonzero"/><path fill="#e29629" d="M 731.835938 568.816406 C 723.292969 568.816406 716.304688 575.804688 716.304688 584.34375 " fill-opacity="1" fill-rule="nonzero"/><path fill="#000000" d="M 716.148438 588.847656 C 718.632812 588.847656 720.5 586.828125 720.5 584.5 C 720.5 578.289062 725.46875 573.320312 731.679688 573.320312 C 734.164062 573.320312 736.027344 571.300781 736.027344 568.972656 C 736.027344 566.644531 734.007812 564.625 731.679688 564.625 C 720.652344 564.625 711.644531 573.632812 711.644531 584.65625 C 711.800781 586.828125 713.820312 588.847656 716.148438 588.847656 Z M 716.148438 588.847656 " fill-opacity="1" fill-rule="nonzero"/></svg>